<svg width="200" height="162" viewBox="0 0 200 162" fill="none" xmlns="http://www.w3.org/2000/svg">
<path fill-rule="evenodd" clip-rule="evenodd" d="M82.8693 14.2182C74.8715 6.22042 64.332 1.26642 53.0707 0.211626C41.8095 -0.843165 30.5333 2.06747 21.1895 8.44094C11.8456 14.8144 5.02059 24.2506 1.89292 35.1201C-1.23475 45.9897 -0.468724 57.6102 4.05873 67.9751C5.57119 71.4376 7.4717 74.6874 9.70873 77.67V77.6699L19.4175 86.4078L24.2718 81.5534L33.9806 92.233L47.5442 97.0772C47.5519 97.0773 47.5597 97.0775 47.5675 97.0777L41.7476 86.4078L55.3398 92.233L60.1942 81.5534L70.8738 84.466L77.6699 77.6699H87.3786C94.0385 68.7902 97.4566 57.8922 97.0557 46.7918L97.0874 46.602H62.1359V58.2525H76.0041C74.9936 61.1108 73.5357 63.8148 71.6644 66.2573C67.5372 71.6444 61.6584 75.4212 55.0432 76.9355C48.4279 78.4499 41.4916 77.6067 35.4318 74.5517C29.372 71.4967 24.5692 66.4215 21.8527 60.2025C19.1362 53.9836 18.6766 47.0113 20.5532 40.4896C22.4298 33.9679 26.5248 28.3061 32.1312 24.4821C37.7375 20.658 44.5032 18.9116 51.2599 19.5445C58.0167 20.1773 64.3404 23.1497 69.139 27.9484L82.8693 14.2182Z" fill="#FFF5E7"/>
<path fill-rule="evenodd" clip-rule="evenodd" d="M190.291 77.6747C196.387 69.5607 200 59.4741 200 48.5437C200 21.7338 178.266 6.10352e-05 151.456 6.10352e-05C124.646 6.10352e-05 102.913 21.7338 102.913 48.5437C102.913 59.4741 106.525 69.5606 112.621 77.6747V77.67H122.33L129.126 84.4661L139.806 81.5535L144.66 92.2331L158.252 86.4079L152.432 97.0778C152.44 97.0776 152.448 97.0775 152.456 97.0773L166.019 92.2331L175.728 81.5535L180.583 86.4079L190.291 77.67V77.6747ZM151.456 77.6699C135.37 77.6699 122.33 64.6297 122.33 48.5437C122.33 32.4578 135.37 19.4175 151.456 19.4175C167.542 19.4175 180.583 32.4578 180.583 48.5437C180.583 64.6297 167.542 77.6699 151.456 77.6699Z" fill="#FFAF36"/>
<path d="M18.0822 111.421V113.346H11.5822V118.521H16.4822V120.421H11.5822V127.796H9.45718V111.421H18.0822ZM36.5562 111.121C38.5229 111.121 39.9729 111.504 40.9062 112.271C41.8395 113.038 42.3062 114.113 42.3062 115.496V116.121C42.3062 117.088 42.0395 117.946 41.5062 118.696C40.9729 119.429 40.2062 119.946 39.2062 120.246L43.4562 127.796H41.0812L37.1062 120.696C36.9729 120.713 36.7062 120.721 36.3062 120.721C35.6395 120.721 34.9812 120.696 34.3312 120.646V127.796H32.2062V111.221C34.0729 111.154 35.5229 111.121 36.5562 111.121ZM36.5062 112.921C35.9562 112.921 35.2312 112.938 34.3312 112.971V118.871C35.2312 118.954 35.9812 118.996 36.5812 118.996C38.9812 118.996 40.1812 118.021 40.1812 116.071V115.571C40.1812 114.671 39.8895 114.004 39.3062 113.571C38.7229 113.138 37.7895 112.921 36.5062 112.921ZM65.5822 111.421V113.346H59.0822V118.521H65.0822V120.421H59.0822V125.871H65.5822V127.796H56.9572V111.421H65.5822ZM88.966 111.421V113.346H82.466V118.521H88.466V120.421H82.466V125.871H88.966V127.796H80.341V111.421H88.966ZM128.092 111.421V113.346H121.592V118.521H126.492V120.421H121.592V127.796H119.467V111.421H128.092ZM144.341 111.421V127.796H142.216V111.421H144.341ZM163.7 111.121C165.666 111.121 167.116 111.504 168.05 112.271C168.983 113.038 169.45 114.113 169.45 115.496V116.121C169.45 117.088 169.183 117.946 168.65 118.696C168.116 119.429 167.35 119.946 166.35 120.246L170.6 127.796H168.225L164.25 120.696C164.116 120.713 163.85 120.721 163.45 120.721C162.783 120.721 162.125 120.696 161.475 120.646V127.796H159.35V111.221C161.216 111.154 162.666 111.121 163.7 111.121ZM163.65 112.921C163.1 112.921 162.375 112.938 161.475 112.971V118.871C162.375 118.954 163.125 118.996 163.725 118.996C166.125 118.996 167.325 118.021 167.325 116.071V115.571C167.325 114.671 167.033 114.004 166.45 113.571C165.866 113.138 164.933 112.921 163.65 112.921ZM192.726 111.421V113.346H186.226V118.521H192.226V120.421H186.226V125.871H192.726V127.796H184.101V111.421H192.726ZM14.4135 138.121C15.0635 138.121 15.7635 138.188 16.5135 138.321C17.2802 138.438 17.7302 138.504 17.8635 138.521L17.8135 140.396C16.3469 140.129 15.2135 139.996 14.4135 139.996C13.2802 139.996 12.4635 140.229 11.9635 140.696C11.4635 141.163 11.2135 141.938 11.2135 143.021V150.171C11.2135 151.254 11.4552 152.029 11.9385 152.496C12.4385 152.946 13.2635 153.171 14.4135 153.171C15.2135 153.171 16.3469 153.038 17.8135 152.771L17.8635 154.696C17.7302 154.713 17.2802 154.779 16.5135 154.896C15.7635 155.029 15.0635 155.096 14.4135 155.096C12.4969 155.096 11.1302 154.688 10.3135 153.871C9.49686 153.054 9.08852 151.779 9.08852 150.046V143.171C9.08852 141.438 9.49686 140.163 10.3135 139.346C11.1302 138.529 12.4969 138.121 14.4135 138.121ZM34.434 138.121C36.3007 138.121 37.6757 138.588 38.559 139.521C39.4424 140.454 39.884 141.779 39.884 143.496V149.721C39.884 151.438 39.4424 152.763 38.559 153.696C37.6757 154.629 36.3007 155.096 34.434 155.096C32.5674 155.096 31.1924 154.629 30.309 153.696C29.4257 152.763 28.984 151.438 28.984 149.721V143.496C28.984 141.779 29.4257 140.454 30.309 139.521C31.1924 138.588 32.5674 138.121 34.434 138.121ZM34.434 139.996C33.334 139.996 32.5007 140.271 31.934 140.821C31.384 141.371 31.109 142.179 31.109 143.246V149.946C31.109 151.013 31.384 151.829 31.934 152.396C32.5007 152.946 33.334 153.221 34.434 153.221C35.534 153.221 36.359 152.946 36.909 152.396C37.4757 151.829 37.759 151.013 37.759 149.946V143.271C37.759 142.204 37.4757 141.396 36.909 140.846C36.359 140.279 35.534 139.996 34.434 139.996ZM63.5383 154.796L63.4133 141.346L59.9383 153.096H57.3133L53.8383 141.346L53.7133 154.796H51.6383L51.7883 138.421H54.9383L58.6383 151.196L62.3133 138.421H65.4633L65.6133 154.796H63.5383ZM89.2688 154.796L89.1438 141.346L85.6688 153.096H83.0438L79.5688 141.346L79.4438 154.796H77.3688L77.5188 138.421H80.6688L84.3688 151.196L88.0438 138.421H91.1938L91.3438 154.796H89.2688ZM113.874 149.621C113.874 151.388 113.424 152.746 112.524 153.696C111.624 154.629 110.299 155.096 108.549 155.096C106.816 155.096 105.491 154.638 104.574 153.721C103.674 152.804 103.224 151.454 103.224 149.671V138.421H105.349V149.946C105.349 151.013 105.624 151.829 106.174 152.396C106.741 152.946 107.533 153.221 108.549 153.221C109.583 153.221 110.374 152.946 110.924 152.396C111.474 151.829 111.749 151.013 111.749 149.946V138.421H113.874V149.621ZM133.379 154.796L127.979 140.971V154.796H125.879V138.421H129.279L134.579 152.246V138.421H136.679V154.796H133.379ZM150.804 138.421V154.796H148.679V138.421H150.804ZM173.313 138.421V140.346H168.563V154.796H166.438V140.346H161.688V138.421H173.313ZM194.273 138.421L189.523 149.171V154.796H187.398V149.171L182.648 138.421H185.073L188.473 146.921L191.898 138.421H194.273Z" fill="#FFF5E7"/>
</svg>
