<svg width="200" height="98" viewBox="0 0 200 98" fill="none" xmlns="http://www.w3.org/2000/svg">
<path fill-rule="evenodd" clip-rule="evenodd" d="M82.8693 14.2182C74.8715 6.22042 64.332 1.26642 53.0707 0.211626C41.8095 -0.843165 30.5333 2.06747 21.1895 8.44094C11.8456 14.8144 5.02059 24.2506 1.89292 35.1201C-1.23475 45.9897 -0.468724 57.6102 4.05873 67.9751C5.57119 71.4376 7.4717 74.6874 9.70873 77.67V77.6699L19.4175 86.4078L24.2718 81.5534L33.9806 92.233L47.5442 97.0772C47.5519 97.0773 47.5597 97.0775 47.5675 97.0777L41.7476 86.4078L55.3398 92.233L60.1942 81.5534L70.8738 84.466L77.6699 77.6699H87.3786C94.0385 68.7902 97.4566 57.8922 97.0557 46.7918L97.0874 46.602H62.1359V58.2525H76.0041C74.9936 61.1108 73.5357 63.8148 71.6644 66.2573C67.5372 71.6444 61.6584 75.4212 55.0432 76.9355C48.4279 78.4499 41.4916 77.6067 35.4318 74.5517C29.372 71.4967 24.5692 66.4215 21.8527 60.2025C19.1362 53.9836 18.6766 47.0113 20.5532 40.4896C22.4298 33.9679 26.5248 28.3061 32.1312 24.4821C37.7375 20.658 44.5032 18.9116 51.2599 19.5445C58.0167 20.1773 64.3404 23.1497 69.139 27.9484L82.8693 14.2182Z" fill="#252320"/>
<path fill-rule="evenodd" clip-rule="evenodd" d="M190.291 77.6746C196.387 69.5606 200 59.474 200 48.5437C200 21.7337 178.266 0 151.456 0C124.646 0 102.913 21.7337 102.913 48.5437C102.913 59.474 106.525 69.5606 112.621 77.6746V77.6699H122.33L129.126 84.466L139.806 81.5534L144.66 92.233L158.252 86.4078L152.432 97.0777C152.44 97.0776 152.448 97.0774 152.456 97.0773L166.019 92.233L175.728 81.5534L180.583 86.4078L190.291 77.6699V77.6746ZM151.456 77.6699C135.37 77.6699 122.33 64.6296 122.33 48.5437C122.33 32.4577 135.37 19.4175 151.456 19.4175C167.542 19.4175 180.583 32.4577 180.583 48.5437C180.583 64.6296 167.542 77.6699 151.456 77.6699Z" fill="#FFAF36"/>
</svg>
