<svg width="400" height="400" viewBox="0 0 400 400" fill="none" xmlns="http://www.w3.org/2000/svg">
<rect width="400" height="400" fill="#252320"/>
<path fill-rule="evenodd" clip-rule="evenodd" d="M182.869 133.218C174.871 125.22 164.332 120.266 153.071 119.212C141.809 118.157 130.533 121.067 121.189 127.441C111.846 133.814 105.021 143.251 101.893 154.12C98.7652 164.99 99.5313 176.61 104.059 186.975C105.571 190.438 107.472 193.687 109.709 196.67V196.67L119.417 205.408L124.272 200.553L133.981 211.233L147.544 216.077C147.552 216.077 147.56 216.077 147.567 216.078L141.748 205.408L155.34 211.233L160.194 200.553L170.874 203.466L177.67 196.67H187.379C194.039 187.79 197.457 176.892 197.056 165.792L197.087 165.602H162.136V177.253H176.004C174.994 180.111 173.536 182.815 171.664 185.257C167.537 190.644 161.658 194.421 155.043 195.936C148.428 197.45 141.492 196.607 135.432 193.552C129.372 190.497 124.569 185.421 121.853 179.203C119.136 172.984 118.677 166.011 120.553 159.49C122.43 152.968 126.525 147.306 132.131 143.482C137.737 139.658 144.503 137.912 151.26 138.544C158.017 139.177 164.34 142.15 169.139 146.948L182.869 133.218Z" fill="#FFF5E7"/>
<path fill-rule="evenodd" clip-rule="evenodd" d="M290.291 196.675C296.387 188.561 300 178.474 300 167.544C300 140.734 278.266 119 251.456 119C224.646 119 202.913 140.734 202.913 167.544C202.913 178.474 206.525 188.561 212.621 196.675V196.67H222.33L229.126 203.466L239.806 200.553L244.66 211.233L258.252 205.408L252.432 216.078C252.44 216.078 252.448 216.077 252.456 216.077L266.019 211.233L275.728 200.553L280.583 205.408L290.291 196.67V196.675ZM251.456 196.67C235.37 196.67 222.33 183.63 222.33 167.544C222.33 151.458 235.37 138.417 251.456 138.417C267.542 138.417 280.583 151.458 280.583 167.544C280.583 183.63 267.542 196.67 251.456 196.67Z" fill="#FFAF36"/>
<path d="M118.082 230.421V232.346H111.582V237.521H116.482V239.421H111.582V246.796H109.457V230.421H118.082ZM136.556 230.121C138.523 230.121 139.973 230.504 140.906 231.271C141.84 232.038 142.306 233.113 142.306 234.496V235.121C142.306 236.088 142.04 236.946 141.506 237.696C140.973 238.429 140.206 238.946 139.206 239.246L143.456 246.796H141.081L137.106 239.696C136.973 239.713 136.706 239.721 136.306 239.721C135.64 239.721 134.981 239.696 134.331 239.646V246.796H132.206V230.221C134.073 230.154 135.523 230.121 136.556 230.121ZM136.506 231.921C135.956 231.921 135.231 231.938 134.331 231.971V237.871C135.231 237.954 135.981 237.996 136.581 237.996C138.981 237.996 140.181 237.021 140.181 235.071V234.571C140.181 233.671 139.89 233.004 139.306 232.571C138.723 232.138 137.79 231.921 136.506 231.921ZM165.582 230.421V232.346H159.082V237.521H165.082V239.421H159.082V244.871H165.582V246.796H156.957V230.421H165.582ZM188.966 230.421V232.346H182.466V237.521H188.466V239.421H182.466V244.871H188.966V246.796H180.341V230.421H188.966ZM228.092 230.421V232.346H221.592V237.521H226.492V239.421H221.592V246.796H219.467V230.421H228.092ZM244.341 230.421V246.796H242.216V230.421H244.341ZM263.7 230.121C265.666 230.121 267.116 230.504 268.05 231.271C268.983 232.038 269.45 233.113 269.45 234.496V235.121C269.45 236.088 269.183 236.946 268.65 237.696C268.116 238.429 267.35 238.946 266.35 239.246L270.6 246.796H268.225L264.25 239.696C264.116 239.713 263.85 239.721 263.45 239.721C262.783 239.721 262.125 239.696 261.475 239.646V246.796H259.35V230.221C261.216 230.154 262.666 230.121 263.7 230.121ZM263.65 231.921C263.1 231.921 262.375 231.938 261.475 231.971V237.871C262.375 237.954 263.125 237.996 263.725 237.996C266.125 237.996 267.325 237.021 267.325 235.071V234.571C267.325 233.671 267.033 233.004 266.45 232.571C265.866 232.138 264.933 231.921 263.65 231.921ZM292.726 230.421V232.346H286.226V237.521H292.226V239.421H286.226V244.871H292.726V246.796H284.101V230.421H292.726ZM114.414 257.121C115.064 257.121 115.764 257.188 116.514 257.321C117.28 257.438 117.73 257.504 117.864 257.521L117.814 259.396C116.347 259.129 115.214 258.996 114.414 258.996C113.28 258.996 112.464 259.229 111.964 259.696C111.464 260.163 111.214 260.938 111.214 262.021V269.171C111.214 270.254 111.455 271.029 111.939 271.496C112.439 271.946 113.264 272.171 114.414 272.171C115.214 272.171 116.347 272.038 117.814 271.771L117.864 273.696C117.73 273.713 117.28 273.779 116.514 273.896C115.764 274.029 115.064 274.096 114.414 274.096C112.497 274.096 111.13 273.688 110.314 272.871C109.497 272.054 109.089 270.779 109.089 269.046V262.171C109.089 260.438 109.497 259.163 110.314 258.346C111.13 257.529 112.497 257.121 114.414 257.121ZM134.434 257.121C136.301 257.121 137.676 257.588 138.559 258.521C139.442 259.454 139.884 260.779 139.884 262.496V268.721C139.884 270.438 139.442 271.763 138.559 272.696C137.676 273.629 136.301 274.096 134.434 274.096C132.567 274.096 131.192 273.629 130.309 272.696C129.426 271.763 128.984 270.438 128.984 268.721V262.496C128.984 260.779 129.426 259.454 130.309 258.521C131.192 257.588 132.567 257.121 134.434 257.121ZM134.434 258.996C133.334 258.996 132.501 259.271 131.934 259.821C131.384 260.371 131.109 261.179 131.109 262.246V268.946C131.109 270.013 131.384 270.829 131.934 271.396C132.501 271.946 133.334 272.221 134.434 272.221C135.534 272.221 136.359 271.946 136.909 271.396C137.476 270.829 137.759 270.013 137.759 268.946V262.271C137.759 261.204 137.476 260.396 136.909 259.846C136.359 259.279 135.534 258.996 134.434 258.996ZM163.538 273.796L163.413 260.346L159.938 272.096H157.313L153.838 260.346L153.713 273.796H151.638L151.788 257.421H154.938L158.638 270.196L162.313 257.421H165.463L165.613 273.796H163.538ZM189.269 273.796L189.144 260.346L185.669 272.096H183.044L179.569 260.346L179.444 273.796H177.369L177.519 257.421H180.669L184.369 270.196L188.044 257.421H191.194L191.344 273.796H189.269ZM213.874 268.621C213.874 270.388 213.424 271.746 212.524 272.696C211.624 273.629 210.299 274.096 208.549 274.096C206.816 274.096 205.491 273.638 204.574 272.721C203.674 271.804 203.224 270.454 203.224 268.671V257.421H205.349V268.946C205.349 270.013 205.624 270.829 206.174 271.396C206.741 271.946 207.533 272.221 208.549 272.221C209.583 272.221 210.374 271.946 210.924 271.396C211.474 270.829 211.749 270.013 211.749 268.946V257.421H213.874V268.621ZM233.379 273.796L227.979 259.971V273.796H225.879V257.421H229.279L234.579 271.246V257.421H236.679V273.796H233.379ZM250.804 257.421V273.796H248.679V257.421H250.804ZM273.313 257.421V259.346H268.563V273.796H266.438V259.346H261.688V257.421H273.313ZM294.273 257.421L289.523 268.171V273.796H287.398V268.171L282.648 257.421H285.073L288.473 265.921L291.898 257.421H294.273Z" fill="#FFF5E7"/>
</svg>
