<svg width="400" height="400" viewBox="0 0 400 400" fill="none" xmlns="http://www.w3.org/2000/svg">
<rect width="400" height="400" fill="#252320"/>
<path fill-rule="evenodd" clip-rule="evenodd" d="M182.869 166.218C174.871 158.22 164.332 153.266 153.071 152.212C141.809 151.157 130.533 154.067 121.189 160.441C111.846 166.814 105.021 176.251 101.893 187.12C98.7652 197.99 99.5313 209.61 104.059 219.975C105.571 223.438 107.472 226.687 109.709 229.67V229.67L119.417 238.408L124.272 233.553L133.981 244.233L147.544 249.077C147.552 249.077 147.56 249.077 147.567 249.078L141.748 238.408L155.34 244.233L160.194 233.553L170.874 236.466L177.67 229.67H187.379C194.039 220.79 197.457 209.892 197.056 198.792L197.087 198.602H162.136V210.253H176.004C174.994 213.111 173.536 215.815 171.664 218.257C167.537 223.644 161.658 227.421 155.043 228.936C148.428 230.45 141.492 229.607 135.432 226.552C129.372 223.497 124.569 218.421 121.853 212.203C119.136 205.984 118.677 199.011 120.553 192.49C122.43 185.968 126.525 180.306 132.131 176.482C137.737 172.658 144.503 170.912 151.26 171.544C158.017 172.177 164.34 175.15 169.139 179.948L182.869 166.218Z" fill="#FFF5E7"/>
<path fill-rule="evenodd" clip-rule="evenodd" d="M290.291 229.675C296.387 221.561 300 211.474 300 200.544C300 173.734 278.266 152 251.456 152C224.646 152 202.913 173.734 202.913 200.544C202.913 211.474 206.525 221.561 212.621 229.675V229.67H222.33L229.126 236.466L239.806 233.553L244.66 244.233L258.252 238.408L252.432 249.078C252.44 249.078 252.448 249.077 252.456 249.077L266.019 244.233L275.728 233.553L280.583 238.408L290.291 229.67V229.675ZM251.456 229.67C235.37 229.67 222.33 216.63 222.33 200.544C222.33 184.458 235.37 171.417 251.456 171.417C267.542 171.417 280.583 184.458 280.583 200.544C280.583 216.63 267.542 229.67 251.456 229.67Z" fill="#FFAF36"/>
</svg>
